<?xml version="1.0" standalone="no"?>
<!DOCTYPE svg PUBLIC "-//W3C//DTD SVG 20010904//EN"
 "http://www.w3.org/TR/2001/REC-SVG-20010904/DTD/svg10.dtd">
<svg version="1.0" xmlns="http://www.w3.org/2000/svg"
 width="500.000000pt" height="500.000000pt" viewBox="0 0 500.000000 500.000000"
 preserveAspectRatio="xMidYMid meet">
<metadata>
Created by potrace 1.14, written by Peter Selinger 2001-2017
</metadata>
<g transform="translate(0.000000,500.000000) scale(0.100000,-0.100000)"
fill="#000000" stroke="none">
<path d="M128 3889 c3 -19 1 -29 -5 -26 -5 3 -10 0 -10 -8 0 -8 4 -12 8 -9 10
6 6 -78 -5 -95 -6 -10 -6 -12 2 -7 14 8 12 -20 -2 -43 -6 -10 -5 -12 2 -7 16
10 15 -26 0 -43 -10 -11 -10 -13 0 -7 16 9 16 -16 0 -33 -9 -10 -9 -12 -1 -7
15 8 14 -33 -1 -53 -8 -11 -8 -13 0 -8 15 9 14 -85 -1 -95 -6 -5 -6 -8 2 -8
15 0 14 -49 -1 -69 -8 -11 -8 -13 0 -8 14 8 17 -53 3 -69 -7 -8 -6 -14 1 -19
8 -5 7 -11 -2 -23 -10 -12 -10 -14 0 -8 16 9 16 -6 -1 -23 -9 -11 -9 -13 0 -7
17 10 17 -26 1 -43 -10 -11 -10 -13 -1 -7 17 9 17 -16 1 -33 -9 -10 -9 -12 -1
-7 15 8 14 -33 -1 -53 -8 -11 -8 -13 0 -8 15 9 14 -85 -1 -95 -6 -5 -6 -8 2
-8 15 0 14 -49 -1 -69 -8 -11 -8 -13 0 -8 14 8 17 -53 3 -69 -7 -8 -6 -14 1
-19 8 -5 7 -11 -2 -23 -10 -12 -10 -14 -1 -8 17 9 17 -6 1 -23 -10 -11 -10
-13 -1 -7 17 10 17 -26 1 -43 -10 -11 -10 -13 0 -7 16 9 16 -16 0 -33 -9 -10
-9 -12 -1 -7 15 8 14 -33 -1 -53 -8 -11 -8 -13 0 -8 15 9 14 -85 -1 -95 -6 -5
-6 -8 3 -8 7 0 12 -14 12 -37 0 -21 5 -55 11 -77 8 -31 8 -41 -3 -47 -10 -7
-9 -9 5 -9 9 0 17 -7 17 -16 0 -9 -5 -12 -12 -8 -7 5 -8 3 -4 -5 5 -7 11 -10
14 -6 9 8 33 -55 25 -68 -4 -6 -1 -7 7 -2 10 6 12 4 6 -11 -4 -10 -4 -15 0
-11 4 4 19 -12 33 -35 13 -24 31 -48 39 -54 9 -7 12 -16 7 -24 -5 -8 -4 -11 2
-7 5 3 31 -16 57 -44 26 -27 51 -49 56 -49 5 0 12 -5 16 -12 5 -7 3 -8 -6 -3
-8 5 -11 4 -6 -3 4 -6 13 -9 21 -5 8 3 15 0 15 -6 0 -6 5 -11 11 -11 6 0 24
-9 40 -21 16 -11 29 -17 29 -13 0 3 7 1 15 -6 8 -7 13 -16 10 -20 -3 -5 0 -12
6 -16 8 -4 9 -3 5 4 -5 8 1 12 14 12 12 0 19 -3 17 -7 -3 -5 5 -8 16 -9 12 0
36 -4 52 -8 61 -14 81 -18 125 -21 25 -1 54 -6 65 -10 16 -5 17 -5 5 4 -13 9
-13 11 -1 11 8 0 25 -9 37 -21 16 -15 24 -17 29 -8 5 7 4 10 -2 6 -6 -4 -16 0
-22 7 -10 12 -7 14 21 11 18 -1 42 -6 53 -10 16 -5 17 -5 5 4 -12 9 -13 11 -1
11 8 0 24 -8 35 -17 18 -15 19 -16 8 -1 -12 15 -10 16 20 13 18 -1 42 -6 53
-10 16 -5 17 -5 5 4 -13 9 -13 11 -1 11 8 0 25 -9 37 -21 16 -15 24 -17 29 -8
5 7 4 10 -2 6 -6 -4 -16 -1 -22 6 -16 20 90 17 115 -3 17 -14 18 -14 6 2 -12
15 -10 16 20 13 18 -1 42 -6 53 -10 16 -5 17 -5 5 4 -13 9 -13 11 -1 11 8 0
25 -9 37 -21 16 -15 24 -17 29 -8 5 7 4 10 -2 6 -6 -4 -16 -1 -22 6 -16 20 90
17 115 -3 17 -13 18 -13 7 1 -11 13 -6 15 41 15 37 -1 60 -7 74 -19 15 -14 22
-15 28 -6 4 7 3 10 -3 6 -6 -4 -16 -1 -22 6 -16 20 90 17 115 -3 17 -14 18
-14 6 2 -12 15 -10 16 20 13 18 -1 42 -6 53 -10 16 -5 17 -5 5 4 -13 9 -13 11
-1 11 8 0 25 -9 37 -21 16 -15 24 -17 29 -8 5 7 4 10 -2 6 -6 -4 -15 -1 -21 6
-8 10 17 12 123 12 73 0 132 -2 130 -5 -2 -3 6 -7 18 -7 16 -2 18 0 8 6 -10 6
-3 9 20 10 56 1 91 8 154 32 33 12 73 22 88 22 20 0 24 2 15 8 -12 8 -4 13 15
10 4 0 7 4 7 10 0 8 5 7 15 -1 13 -11 14 -10 9 3 -4 11 4 20 23 31 16 8 35 22
42 30 7 9 16 14 20 13 3 -2 16 7 28 20 12 13 20 23 17 23 -3 0 8 12 23 28 15
15 31 26 36 24 5 -1 6 2 2 8 -3 5 5 25 18 42 26 35 77 125 76 133 -2 16 14 65
19 61 4 -2 8 9 9 25 1 16 3 45 4 64 1 19 7 32 12 28 5 -3 4 4 -2 15 -7 14 -8
23 -1 27 6 4 8 10 6 14 -3 4 -5 57 -5 117 0 60 -1 120 -2 134 0 14 0 32 0 40
3 45 3 209 0 280 -1 30 -1 24 3 124 2 51 8 81 16 84 7 2 10 7 7 12 -7 12 23
65 37 65 7 0 12 8 10 16 -1 9 5 22 13 29 8 7 15 9 15 4 0 -5 7 2 16 14 8 12
20 20 25 17 5 -4 9 -1 9 5 0 6 5 8 10 5 6 -3 10 -1 10 5 0 6 4 9 9 6 5 -4 12
0 14 6 4 10 6 10 6 1 1 -7 6 -13 11 -13 6 0 9 6 8 13 -2 6 8 13 22 14 14 1 37
4 53 6 15 3 27 0 27 -7 0 -6 5 -4 10 4 5 8 10 11 10 5 0 -5 17 -11 38 -12 39
-2 136 -46 125 -57 -3 -3 2 -6 11 -6 11 0 16 -5 13 -14 -3 -8 1 -13 11 -12 16
1 75 -91 66 -105 -2 -4 1 -9 8 -11 14 -5 20 -386 6 -394 -5 -3 -5 -11 0 -17
12 -15 12 -49 0 -64 -5 -7 -5 -14 2 -18 5 -3 10 -11 10 -16 0 -6 -5 -7 -12 -3
-7 5 -8 3 -3 -7 13 -20 13 -49 1 -49 -7 0 -8 -3 -1 -8 14 -9 15 -103 2 -95 -6
4 -7 1 -2 -8 13 -20 13 -49 1 -49 -7 0 -8 -3 -1 -8 12 -8 14 -121 2 -139 -4
-6 -3 -14 2 -17 11 -7 11 -55 0 -62 -5 -3 -6 -11 -2 -17 10 -17 11 -377 0
-384 -4 -2 -4 -10 1 -16 12 -17 13 -55 1 -63 -6 -4 -6 -10 -1 -17 6 -7 9 -23
8 -37 -1 -14 1 -33 6 -42 5 -10 4 -19 -2 -23 -5 -3 -10 -12 -10 -18 0 -7 4 -6
10 3 8 12 10 12 11 -5 2 -42 32 -136 52 -162 5 -7 7 -19 3 -28 -3 -8 -1 -14 3
-12 12 3 71 -85 65 -95 -3 -5 0 -7 8 -6 7 2 12 -3 11 -9 -2 -7 0 -12 5 -11 12
4 62 -45 55 -55 -3 -6 -1 -7 5 -3 6 3 17 1 24 -6 20 -19 51 -38 71 -45 10 -3
16 -11 13 -18 -2 -7 3 -12 12 -11 10 0 37 -8 62 -18 25 -11 51 -20 58 -22 32
-6 41 -14 36 -31 -5 -16 -4 -16 5 -2 13 20 65 14 57 -7 -3 -7 0 -16 6 -20 6
-4 8 -3 5 2 -3 6 -2 16 4 24 5 9 9 10 9 3 0 -6 9 -9 22 -5 11 3 19 1 16 -4 -7
-10 163 -11 180 0 6 3 14 1 18 -5 5 -8 9 -7 15 2 6 10 13 10 33 1 14 -6 25 -8
25 -4 -3 19 2 25 11 12 8 -12 10 -12 10 -1 0 11 5 9 22 -5 16 -13 19 -14 10
-2 -11 14 -10 17 7 23 46 14 73 16 65 4 -4 -8 -3 -9 5 -5 6 4 9 11 6 16 -3 4
2 11 11 14 23 9 27 8 20 -10 -3 -8 -2 -12 4 -9 6 3 10 13 10 22 0 10 6 13 16
9 8 -3 13 -2 10 3 -7 11 43 33 56 25 7 -4 8 -2 4 4 -4 7 3 17 18 24 14 6 26
16 26 21 0 5 11 7 25 5 20 -4 23 -3 14 8 -11 14 -1 19 24 15 5 -1 6 2 3 7 -5
9 52 67 66 67 3 0 10 4 15 9 5 5 3 6 -4 2 -20 -11 -15 8 6 26 11 9 23 13 27
10 4 -4 4 -2 1 5 -10 16 3 44 16 36 5 -3 7 -1 4 4 -9 14 17 65 28 55 5 -4 5
-1 1 6 -11 18 13 74 28 65 6 -4 5 1 -3 10 -11 14 -11 18 3 23 11 4 13 10 7 18
-6 7 -6 18 -1 25 4 8 6 21 2 29 -3 9 -1 13 4 10 5 -4 9 18 8 50 -1 32 4 63 10
71 8 11 8 13 -1 8 -15 -9 -14 32 1 52 8 11 8 13 0 8 -14 -8 -14 90 0 112 6 9
5 12 -1 8 -13 -8 -12 62 1 82 6 10 6 12 -2 7 -7 -4 -12 -2 -12 3 0 6 6 11 13
11 8 0 8 3 1 8 -13 9 -13 341 0 361 6 9 5 12 -1 8 -6 -4 -9 28 -10 83 0 49 3
87 7 85 4 -2 7 2 7 10 0 8 -3 12 -7 10 -4 -2 -7 18 -6 45 0 28 4 50 10 50 6 0
5 4 -3 9 -12 8 -12 12 -2 25 9 11 10 16 2 16 -6 0 -11 7 -11 15 0 45 -222 -29
-289 -96 -37 -36 -91 -113 -91 -128 0 -6 -5 -11 -12 -11 -6 0 -9 -3 -5 -6 3
-3 2 -17 -3 -30 -18 -48 -20 -83 -21 -441 0 -200 -4 -363 -7 -363 -4 0 -8 -11
-8 -24 -4 -71 -79 -157 -172 -198 -57 -25 -199 -31 -226 -9 -9 7 -16 11 -16 7
0 -4 -17 2 -38 13 -50 26 -106 84 -134 141 l-23 45 -1 748 c-1 411 -4 751 -8
754 -3 3 0 13 7 21 9 13 9 14 0 8 -9 -5 -13 2 -15 26 -1 42 -2 47 -17 83 -6
17 -17 44 -23 60 -19 49 -92 157 -134 198 -95 92 -226 161 -365 193 -77 18
-246 23 -334 11 -190 -25 -397 -154 -488 -303 -17 -28 -58 -111 -62 -126 -2
-5 -3 -9 -5 -10 -1 -2 -3 -12 -5 -22 -2 -10 -10 -23 -17 -27 -9 -6 -9 -9 -1
-9 8 0 9 -9 2 -32 -5 -18 -9 -46 -9 -63 0 -16 -4 -25 -8 -20 -4 6 -18 11 -32
13 -13 1 -27 6 -30 10 -3 4 -14 8 -25 9 -11 1 -40 5 -65 9 -25 3 -90 7 -146 9
-55 1 -106 5 -112 9 -6 3 -13 3 -16 -2 -3 -5 -198 -9 -433 -10 -235 0 -438 -1
-451 -1 -22 -1 -23 -5 -20 -48 2 -27 7 -53 11 -60 4 -6 8 -23 9 -37 1 -14 6
-26 11 -26 5 0 7 -9 4 -19 -3 -14 -1 -18 9 -14 8 3 14 -1 14 -10 0 -9 11 -28
25 -43 13 -14 22 -31 19 -36 -3 -4 -2 -7 3 -6 12 4 84 -53 78 -62 -3 -4 7 -7
21 -7 15 0 30 -6 34 -14 5 -7 21 -14 36 -16 15 -2 42 -10 60 -18 25 -10 34
-11 38 -2 3 8 5 8 5 1 1 -7 12 -9 27 -6 18 3 25 1 20 -6 -3 -6 -2 -14 4 -17 6
-4 9 -1 8 7 -2 9 12 14 50 16 31 2 52 -1 52 -7 0 -6 5 -11 11 -11 5 0 7 5 4
10 -4 6 8 10 29 10 20 0 36 -4 36 -10 0 -5 5 -10 11 -10 5 0 7 5 4 10 -4 6 20
10 65 10 51 0 69 -3 64 -12 -5 -7 -3 -8 7 -2 21 12 89 16 89 4 0 -5 5 -10 11
-10 5 0 7 5 4 10 -4 6 16 10 54 10 56 0 60 -1 56 -21 -3 -12 -1 -18 3 -15 4 4
7 13 7 19 0 7 17 13 39 15 29 3 36 0 30 -10 -6 -10 -5 -11 7 -1 12 10 18 10
29 0 10 -10 11 -9 5 1 -6 11 -3 12 14 3 11 -7 21 -9 21 -5 0 3 7 1 15 -6 8 -7
12 -17 8 -23 -3 -6 -1 -7 6 -3 6 4 9 12 6 17 -3 5 1 6 9 3 9 -3 16 -10 16 -16
0 -5 5 -6 10 -3 6 3 10 2 10 -4 0 -5 -6 -12 -12 -15 -7 -3 -3 -3 10 0 17 4 31
-3 57 -31 20 -20 33 -40 30 -46 -4 -5 -1 -8 7 -7 8 2 13 -6 12 -19 0 -12 4
-21 10 -20 13 2 34 -74 35 -126 1 -48 -18 -127 -31 -127 -5 0 -7 -4 -4 -8 6
-11 -31 -67 -44 -67 -5 0 -9 -3 -7 -6 5 -14 -35 -47 -91 -75 l-57 -29 -675 -2
-675 -2 -60 28 c-67 32 -125 77 -125 97 0 8 -4 14 -9 14 -5 0 -19 21 -32 48
l-24 47 0 547 c0 302 -3 548 -6 548 -4 0 -9 12 -12 28 -3 15 -11 41 -17 57 -6
17 -10 30 -8 30 7 1 -69 91 -102 123 -49 46 -144 88 -216 97 l-61 7 5 -33z"/>
<path d="M3053 3465 c0 -8 4 -12 9 -9 5 3 6 10 3 15 -9 13 -12 11 -12 -6z"/>
<path d="M3170 3456 c0 -2 8 -10 18 -17 15 -13 16 -12 3 4 -13 16 -21 21 -21
13z"/>
<path d="M1270 2879 c0 -5 5 -7 10 -4 6 3 10 8 10 11 0 2 -4 4 -10 4 -5 0 -10
-5 -10 -11z"/>
<path d="M1335 2860 c3 -5 8 -10 11 -10 2 0 4 5 4 10 0 6 -5 10 -11 10 -5 0
-7 -4 -4 -10z"/>
<path d="M1466 2858 c3 -5 10 -6 15 -3 13 9 11 12 -6 12 -8 0 -12 -4 -9 -9z"/>
<path d="M2026 2858 c3 -4 11 -5 19 -1 21 7 19 12 -4 10 -11 0 -18 -5 -15 -9z"/>
<path d="M473 1885 c0 -8 4 -12 9 -9 5 3 6 10 3 15 -9 13 -12 11 -12 -6z"/>
<path d="M2355 1871 c-3 -5 -2 -12 3 -15 5 -3 9 1 9 9 0 17 -3 19 -12 6z"/>
<path d="M607 1839 c7 -7 15 -10 18 -7 3 3 -2 9 -12 12 -14 6 -15 5 -6 -5z"/>
<path d="M2300 1846 c0 -2 7 -7 16 -10 8 -3 12 -2 9 4 -6 10 -25 14 -25 6z"/>
<path d="M653 1825 c0 -8 4 -12 9 -9 5 3 6 10 3 15 -9 13 -12 11 -12 -6z"/>
<path d="M4695 1340 c3 -5 8 -10 11 -10 2 0 4 5 4 10 0 6 -5 10 -11 10 -5 0
-7 -4 -4 -10z"/>
<path d="M4516 1218 c3 -4 11 -5 19 -1 21 7 19 12 -4 10 -11 0 -18 -5 -15 -9z"/>
<path d="M3813 1185 c0 -8 4 -12 9 -9 5 3 6 10 3 15 -9 13 -12 11 -12 -6z"/>
<path d="M4186 1122 c-3 -5 1 -9 9 -9 8 0 12 4 9 9 -3 4 -7 8 -9 8 -2 0 -6 -4
-9 -8z"/>
</g>
</svg>
